<?xml version="1.0" encoding="UTF-8"?>
<svg id="icon" version="1.1" viewBox="0 0 48 48" xmlns="http://www.w3.org/2000/svg">
 <path id="main" d="m24 44.526-2.3062-2.081q-5.9625-5.4555-9.8438-9.4206-3.8812-3.9651-6.1875-7.0866-2.3062-3.1215-3.2344-5.6524t-0.92812-5.1181q0-5.0618 3.4031-8.4645 3.4031-3.4027 8.4094-3.4027 3.2062 0 5.9344 1.5185t4.7531 4.3869q2.3625-3.0371 5.0062-4.4713t5.6812-1.4342q5.0062 0 8.4094 3.4027 3.4031 3.4027 3.4031 8.4645 0 2.5872-0.92812 5.1181t-3.2344 5.6524q-2.3062 3.1215-6.1875 7.0866-3.8812 3.9651-9.8438 9.4206z" stroke-width="1px"/>
</svg>
