<svg id="icon" viewBox="0 0 26.39 26.39" xmlns="http://www.w3.org/2000/svg">
<path d="m13.412 1.5039-13.412 11.812s0.82586 1.524 2.6309 0l10.781-9.1211 10.107 9.0645c2.088 1.506 2.8711 0 2.8711 0l-12.979-11.756zm7.2617 2.6719 0.011719 3.1523 2.5879 2.1973v-5.3496h-2.5996zm-7.3438 1.7363-9.7422 8.1641v10.221s-0.024266 0.58984 0.55273 0.58984c0.718 0 6.6523-0.007813 6.6523-0.007813l0.009765-5.4512s-0.093656-0.89844 0.77734-0.89844h2.7617c1.031 0 0.9668 0.89844 0.9668 0.89844l-0.011719 5.4336h6.5117c0.732 0 0.69922-0.73242 0.69922-0.73242v-10.053l-9.1777-8.1641z"/>
</svg>
