<svg id="icon" role="img" viewBox="0 0 49.999 49.999" xmlns="http://www.w3.org/2000/svg">
  <path d="m48.681 42.295-8.925-8.904c-.045-.045-.098-.078-.145-.11a21.653 21.653 0 0 1-2.843 3.487 21.27 21.27 0 0 1-3.501 2.845c.044.046.077.1.122.144l8.907 8.924a4.52 4.52 0 0 0 6.383 0 4.525 4.525 0 0 0 .002-6.386zM35.496 6.079c-8.108-8.106-21.298-8.106-29.407.002-8.117 8.106-8.118 21.306-.006 29.415 8.112 8.105 21.305 8.105 29.413-.001 8.108-8.108 8.107-21.309 0-29.416zM9.905 31.678c-6.003-6.003-6.001-15.776.002-21.773 6.003-6.002 15.77-6.002 21.771-.003 5.999 6 5.997 15.762 0 21.774-6.002 5.984-15.768 6.006-21.773.002z"/>
  <path d="M14.18 22.464c-.441-1.812-2.257-4.326-3.785-3.525-1.211.618-.87 3.452-.299 5.128 2.552 7.621 11.833 9.232 12.798 8.268.949-.948-6.966-2.7-8.714-9.871z"/>
</svg>
